{"title":"Blitz.2011.SWESUB.720p.BluRay.x264-ASPiRE","uid":6596025,"size":3514444511,"categoryP":"video","categoryS":"hd___movies","magnet":"?xt=urn:btih:78529b405cc37a898f3991e51e103f584ef1fe60&amp;dn=Blitz.2011.SWESUB.720p.BluRay.x264-ASPiRE&amp;tr=udp%3A%2F%2Ftracker.openbittorrent.com%3A80&amp;tr=udp%3A%2F%2Fopen.demonii.com%3A1337&amp;tr=udp%3A%2F%2Ftracker.coppersurfer.tk%3A6969&amp;tr=udp%3A%2F%2Fexodus.desync.com%3A6969","seeders":0,"leechers":1,"uploader":"xASPiREx","files":-1,"time":1313017870,"description":"Blitz 2011 SWESUB 720p BluRay x264-ASPiRE\n &lt;a href=&quot;\nhttp://www.imdb.com/title/tt1297919/&quot; rel=&quot;nofollow&quot; target=&quot;_NEW&quot;&gt;\nhttp://www.imdb.com/title/tt1297919/&lt;/a&gt;\n\nHandling:\n\nThe Walking Dead ÃƒÂ¤r en amerikansk TV-serie frÃƒÂ¥n 2010. Serien ÃƒÂ¤r baserad pÃƒÂ¥ \nserietidningen med samma namn. Serien handlar om polischefen Rick Grimes som, \ntillsammans med ett fÃƒÂ¥tal andra, fÃƒÂ¶rsÃƒÂ¶ker klara sig i en vÃƒÂ¤rld som blivit \nÃƒÂ¶vertagen av zombies.\n\niNFO:\n\nGenre: Thriller\nRegi: Elliott Lester\nMedverkande: Jason Statham, Paddy Considine, Aidan Gillen, Zawe Ashton\nProduktionsland: England\nSprÃƒÂ¥k: Engelska\nText: Svenska\n\nGeneral:\nFormat                           : Matroska\nFile size                        : 3.27 GiB\nDuration                         : 1h 37mn\nOverall bit rate                 : 4 830 Kbps\n\nVideo:\nFormat                           : AVC\nFormat/Info                      : Advanced Video Codec\nFormat profile                   : &lt;a class=&quot;__cf_email__&quot; href=&quot;/cdn-cgi/l/email-protection&quot; data-cfemail=&quot;8bc3e2ece3cbc7bfa5ba&quot;&gt;[email&amp;#160;protected]&lt;/a&gt;&lt;script cf-hash='f9e31' type=&quot;text/javascript&quot;&gt;\n/* &lt;![CDATA[ */!function(){try{var t=&quot;currentScript&quot;in document?document.currentScript:function(){for(var t=document.getElementsByTagName(&quot;script&quot;),e=t.length;e--;)if(t[e].getAttribute(&quot;cf-hash&quot;))return t[e]}();if(t&amp;&amp;t.previousSibling){var e,r,n,i,c=t.previousSibling,a=c.getAttribute(&quot;data-cfemail&quot;);if(a){for(e=&quot;&quot;,r=parseInt(a.substr(0,2),16),n=2;a.length-n;n+=2)i=parseInt(a.substr(n,2),16)^r,e+=String.fromCharCode(i);e=document.createTextNode(e),c.parentNode.replaceChild(e,c)}}}catch(u){}}();/* ]]&gt; */&lt;/script&gt;\nFormat settings, CABAC           : Yes\nFormat settings, ReFrames        : 5 frames\nMuxing mode                      : Header stripping\nCodec ID                         : V_MPEG4/ISO/AVC\nDuration                         : 1h 37mn\nBit rate                         : 4 187 Kbps\nWidth                            : 1 280 pixels\nHeight                           : 544 pixels\nDisplay aspect ratio             : 2.35:1\nFrame rate                       : 24.000 fps\nColor space                      : YUV\nChroma subsampling               : 4:2:0\nBit depth                        : 8 bits\nScan type                        : Progressive\nBits/(Pixel*Frame)               : 0.251\nStream size                      : 2.77 GiB (85%)\nLanguage                         : English\n\nAudio:\nFormat                           : AC-3\nFormat/Info                      : Audio Coding 3\nMode extension                   : CM (complete main)\nMuxing mode                      : Header stripping\nCodec ID                         : A_AC3\nDuration                         : 1h 37mn\nBit rate mode                    : Constant\nBit rate                         : 640 Kbps\nChannel(s)                       : 6 channels\nChannel positions                : Front: L C R, Side: L R, LFE\nSampling rate                    : 48.0 KHz\nBit depth                        : 16 bits\nCompression mode                 : Lossy\nStream size                      : 444 MiB (13%)\nLanguage                         : English\n\nEnjoy, ASPiRE","torrent":{"xt":"urn:btih:78529b405cc37a898f3991e51e103f584ef1fe60","amp;dn":"Blitz.2011.SWESUB.720p.BluRay.x264-ASPiRE","amp;tr":["udp%3A%2F%2Ftracker.openbittorrent.com%3A80","udp%3A%2F%2Fopen.demonii.com%3A1337","udp%3A%2F%2Ftracker.coppersurfer.tk%3A6969","udp%3A%2F%2Fexodus.desync.com%3A6969"],"infoHash":"78529b405cc37a898f3991e51e103f584ef1fe60","infoHashBuffer":{"type":"Buffer","data":[120,82,155,64,92,195,122,137,143,57,145,229,30,16,63,88,78,241,254,96]},"announce":[],"urlList":[]}}